<svg width="141" height="34" viewBox="0 0 141 34" fill="none" xmlns="http://www.w3.org/2000/svg">
<g clip-path="url(#clip0_174_1307)">
<path fill-rule="evenodd" clip-rule="evenodd" d="M9.06154 32.5C0.896221 32.5 0 25.0604 0 16.5C0 7.93959 0.896221 1.5 9.06154 1.5C17.2269 1.5 31 6.93959 31 15.5C31 24.0604 17.2269 32.5 9.06154 32.5ZM17.5 24.5C21.6421 24.5 25 21.1421 25 17C25 12.8579 21.6421 9.5 17.5 9.5C13.3579 9.5 10 12.8579 10 17C10 21.1421 13.3579 24.5 17.5 24.5Z" fill="#7000FF"/>
</g>
<path d="M41.768 26V7.8H47.982C50.114 7.8 51.8647 8.18133 53.234 8.944C54.6207 9.68933 55.6433 10.7467 56.302 12.116C56.978 13.468 57.316 15.0627 57.316 16.9C57.316 18.7373 56.978 20.3407 56.302 21.71C55.6433 23.062 54.6207 24.1193 53.234 24.882C51.8647 25.6273 50.114 26 47.982 26H41.768ZM45.096 23.14H47.826C49.3513 23.14 50.556 22.8973 51.44 22.412C52.324 21.9093 52.9567 21.1987 53.338 20.28C53.7193 19.344 53.91 18.2173 53.91 16.9C53.91 15.6 53.7193 14.482 53.338 13.546C52.9567 12.61 52.324 11.8907 51.44 11.388C50.556 10.8853 49.3513 10.634 47.826 10.634H45.096V23.14ZM66.4404 26.312C65.1404 26.312 63.9877 26.0347 62.9824 25.48C61.977 24.9253 61.1884 24.1453 60.6164 23.14C60.0444 22.1347 59.7584 20.9733 59.7584 19.656C59.7584 18.3213 60.0357 17.134 60.5904 16.094C61.1624 15.054 61.9424 14.248 62.9304 13.676C63.9357 13.0867 65.1144 12.792 66.4664 12.792C67.7317 12.792 68.8497 13.0693 69.8204 13.624C70.791 14.1787 71.545 14.9413 72.0824 15.912C72.637 16.8653 72.9144 17.9313 72.9144 19.11C72.9144 19.3007 72.9057 19.5 72.8884 19.708C72.8884 19.916 72.8797 20.1327 72.8624 20.358H63.0604C63.1297 21.3633 63.4764 22.152 64.1004 22.724C64.7417 23.296 65.513 23.582 66.4144 23.582C67.0904 23.582 67.6537 23.4347 68.1044 23.14C68.5724 22.828 68.919 22.4293 69.1444 21.944H72.5244C72.2817 22.7587 71.8744 23.504 71.3024 24.18C70.7477 24.8387 70.0544 25.3587 69.2224 25.74C68.4077 26.1213 67.4804 26.312 66.4404 26.312ZM66.4664 15.496C65.6517 15.496 64.9324 15.73 64.3084 16.198C63.6844 16.6487 63.2857 17.342 63.1124 18.278H69.5344C69.4824 17.4287 69.1704 16.7527 68.5984 16.25C68.0264 15.7473 67.3157 15.496 66.4664 15.496ZM81.0434 26.312C79.8994 26.312 78.8941 26.13 78.0274 25.766C77.1608 25.3847 76.4674 24.8647 75.9474 24.206C75.4274 23.5473 75.1154 22.7847 75.0114 21.918H78.3654C78.4694 22.4207 78.7468 22.854 79.1974 23.218C79.6654 23.5647 80.2634 23.738 80.9914 23.738C81.7194 23.738 82.2481 23.5907 82.5774 23.296C82.9241 23.0013 83.0974 22.6633 83.0974 22.282C83.0974 21.7273 82.8548 21.3547 82.3694 21.164C81.8841 20.956 81.2081 20.7567 80.3414 20.566C79.7868 20.4447 79.2234 20.2973 78.6514 20.124C78.0794 19.9507 77.5508 19.734 77.0654 19.474C76.5974 19.1967 76.2161 18.85 75.9214 18.434C75.6268 18.0007 75.4794 17.472 75.4794 16.848C75.4794 15.704 75.9301 14.742 76.8314 13.962C77.7501 13.182 79.0328 12.792 80.6794 12.792C82.2048 12.792 83.4181 13.1473 84.3194 13.858C85.2381 14.5687 85.7841 15.548 85.9574 16.796H82.8114C82.6208 15.8427 81.9014 15.366 80.6534 15.366C80.0294 15.366 79.5441 15.4873 79.1974 15.73C78.8681 15.9727 78.7034 16.276 78.7034 16.64C78.7034 17.0213 78.9548 17.3247 79.4574 17.55C79.9601 17.7753 80.6274 17.9833 81.4594 18.174C82.3608 18.382 83.1841 18.616 83.9294 18.876C84.6921 19.1187 85.2988 19.4913 85.7494 19.994C86.2001 20.4793 86.4254 21.1813 86.4254 22.1C86.4428 22.8973 86.2348 23.6167 85.8014 24.258C85.3681 24.8993 84.7441 25.402 83.9294 25.766C83.1148 26.13 82.1528 26.312 81.0434 26.312ZM89.3736 26V7.28H92.7016V18.33L97.2776 13.104H101.23L95.9516 18.98L102.088 26H97.9276L92.7016 19.526V26H89.3736ZM109.351 26.312C108.051 26.312 106.898 26.0347 105.893 25.48C104.887 24.9253 104.099 24.1453 103.527 23.14C102.955 22.1347 102.669 20.9733 102.669 19.656C102.669 18.3213 102.946 17.134 103.501 16.094C104.073 15.054 104.853 14.248 105.841 13.676C106.846 13.0867 108.025 12.792 109.377 12.792C110.642 12.792 111.76 13.0693 112.731 13.624C113.701 14.1787 114.455 14.9413 114.993 15.912C115.547 16.8653 115.825 17.9313 115.825 19.11C115.825 19.3007 115.816 19.5 115.799 19.708C115.799 19.916 115.79 20.1327 115.773 20.358H105.971C106.04 21.3633 106.387 22.152 107.011 22.724C107.652 23.296 108.423 23.582 109.325 23.582C110.001 23.582 110.564 23.4347 111.015 23.14C111.483 22.828 111.829 22.4293 112.055 21.944H115.435C115.192 22.7587 114.785 23.504 114.213 24.18C113.658 24.8387 112.965 25.3587 112.133 25.74C111.318 26.1213 110.391 26.312 109.351 26.312ZM109.377 15.496C108.562 15.496 107.843 15.73 107.219 16.198C106.595 16.6487 106.196 17.342 106.023 18.278H112.445C112.393 17.4287 112.081 16.7527 111.509 16.25C110.937 15.7473 110.226 15.496 109.377 15.496ZM118.624 26V13.104H121.588L121.9 15.522C122.368 14.69 123 14.0313 123.798 13.546C124.612 13.0433 125.566 12.792 126.658 12.792V16.302H125.722C124.994 16.302 124.344 16.4147 123.772 16.64C123.2 16.8653 122.749 17.2553 122.42 17.81C122.108 18.3647 121.952 19.136 121.952 20.124V26H118.624ZM133.378 26.312C132.269 26.312 131.359 26.1387 130.648 25.792C129.938 25.428 129.409 24.9513 129.062 24.362C128.716 23.7727 128.542 23.1227 128.542 22.412C128.542 21.216 129.01 20.2453 129.946 19.5C130.882 18.7547 132.286 18.382 134.158 18.382H137.434V18.07C137.434 17.186 137.183 16.536 136.68 16.12C136.178 15.704 135.554 15.496 134.808 15.496C134.132 15.496 133.543 15.6607 133.04 15.99C132.538 16.302 132.226 16.77 132.104 17.394H128.854C128.941 16.458 129.253 15.6433 129.79 14.95C130.345 14.2567 131.056 13.728 131.922 13.364C132.789 12.9827 133.76 12.792 134.834 12.792C136.672 12.792 138.119 13.2513 139.176 14.17C140.234 15.0887 140.762 16.3887 140.762 18.07V26H137.928L137.616 23.92C137.235 24.6133 136.698 25.1853 136.004 25.636C135.328 26.0867 134.453 26.312 133.378 26.312ZM134.132 23.712C135.086 23.712 135.822 23.4 136.342 22.776C136.88 22.152 137.218 21.3807 137.356 20.462H134.522C133.638 20.462 133.006 20.6267 132.624 20.956C132.243 21.268 132.052 21.658 132.052 22.126C132.052 22.6287 132.243 23.0187 132.624 23.296C133.006 23.5733 133.508 23.712 134.132 23.712Z" fill="white"/>
<defs>
<clipPath id="clip0_174_1307">
<rect width="31" height="31" fill="white" transform="translate(0 1.5)"/>
</clipPath>
</defs>
</svg>
